# xmcd
#
# Track frame offsets:
#	150
#	23868
#	42855
#	60492
#	85771
#	108624
#	129026
#	150481
#	176535
#	199384
#	210461
#	218275
#	227291
#
# Disc length: 3159 seconds
#
# Revision: 1
# Processed by: cddbd v1.5.2PL0 Copyright (c) Steve Scherf et al.
# Submitted via: audiograbber 1.83.01
#
DISCID=990c550d
DTITLE=Various Artist - X-Mix Urban 138 (May 2010)
DYEAR=2010
DGENRE=hb
TTITLE0=Usher - Will.I.Am - OMG (130 BPM)
TTITLE1=IYAZ - Solo (130 BPM)
TTITLE2=Christina Aguilera - Not Myself Tonight (120 BPM)
TTITLE3=Diddy-Dirty Money - T.I. - Hello Good Morning (104 BPM)
TTITLE4=Lady Gaga - Alejandro [Remix] (99 BPM)
TTITLE5=Big Boi - Cutty Cartel - Shutterbugg (98 BPM)
TTITLE6=Jamie Foxx - Justin Timberlake - T.I. - Winner (90 BPM)
TTITLE7=DJ Khaled - T-Pain - Ludacris - All I Do Is Win (75 BPM)
TTITLE8=Lady Gaga - Alejandro [Old School Remix]  (99 BPM)
TTITLE9=Usher - Will.I.Am - OMG   X-MIX (105 130 BPM)
TTITLE10=Diddy-Dirty Money - T.I. - Hello Good Morning   X-MIX   (104 90 BPM)
TTITLE11=IYAZ - Solo   XMIX   (130 BPM)
TTITLE12=Christina Aguilera - Not Myself   XMIX   (120 BPM)
EXTD=
EXTT0=
EXTT1=
EXTT2=
EXTT3=
EXTT4=
EXTT5=
EXTT6=
EXTT7=
EXTT8=
EXTT9=
EXTT10=
EXTT11=
EXTT12=
PLAYORDER=
